PathFileType	4	(X/Y/Z)	Patient4_TMGait_0pt4_02_left_29.trc.trc
DataRate	CameraRate	NumFrames	NumMarkers	Units	OrigDataRate	OrigDataStartFrame	OrigNumFrames
74.468085106383	74.468085106383	4	33	mm	74.468085106383	71	       141
Frame#	Time	Sacral			L.Shoulder			Chest			R.Shoulder			Neck			R.ASIS			L.ASIS			R.Thigh.Superior			R.Thigh.Lateral			R.Thigh.Inferior			R.Patella			L.Thigh.Superior			L.Thigh.Lateral			L.Thigh.Inferior			L.Patella			L.Shank.Superior			L.Shank.Lateral			L.Shank.Inferior			R.Shank.Superior			R.Shank.Lateral			R.Shank.Inferior			R.Heel			R.Midfoot.Superior			R.Midfoot.Lateral			R.Toe			L.Heel			L.Midfoot.Lateral			L.Midfoot.Superior			L.Toe			L.Elbow			L.Wrist			R.Elbow			R.Wrist			
		X1	Y1	Z1	X2	Y2	Z2	X3	Y3	Z3	X4	Y4	Z4	X5	Y5	Z5	X6	Y6	Z6	X7	Y7	Z7	X8	Y8	Z8	X9	Y9	Z9	X10	Y10	Z10	X11	Y11	Z11	X12	Y12	Z12	X13	Y13	Z13	X14	Y14	Z14	X15	Y15	Z15	X16	Y16	Z16	X17	Y17	Z17	X18	Y18	Z18	X19	Y19	Z19	X20	Y20	Z20	X21	Y21	Z21	X22	Y22	Z22	X23	Y23	Z23	X24	Y24	Z24	X25	Y25	Z25	X26	Y26	Z26	X27	Y27	Z27	X28	Y28	Z28	X29	Y29	Z29	X30	Y30	Z30	X31	Y31	Z31	X32	Y32	Z32	X33	Y33	Z33	

71	39.830000000000	862.457869584954	1004.827993728437	409.863502980565	1064.959980491315	1428.415111376877	227.929912380324	1145.438004624013	1368.116814092680	403.781731844857	1038.993134441568	1446.993114975238	562.178787952171	1025.405311176492	1495.575961284431	378.785404588515	1082.343867629377	946.051281302857	548.469375887669	1090.674982050105	963.925284534625	271.783904743552	1147.655796392301	761.015829908613	527.438286519344	1095.051230280958	643.431934365072	600.669013638986	1183.984171875136	599.198665366453	523.706339388577	1211.254823996493	516.103149475297	541.818057020659	1100.923980651652	739.164076200624	299.380903172399	990.386272550848	637.714762763061	234.970149030926	1056.526442103012	548.731839857511	298.590895561548	1044.398103359861	483.232899230885	307.466097707819	1015.112637921821	414.847907028170	300.280376413327	917.491871203604	304.682666392052	252.863637521991	966.566660693938	192.135313001127	325.155468988659	1191.495787125303	430.242759485274	553.335828394344	1131.725424149413	321.231083447726	618.371196678808	1197.550283895261	230.676462523687	569.922801977941	1097.344688983351	48.443401710753	546.221244329484	1263.693657075351	114.434630795642	584.266496702679	1181.274118902556	44.609538928470	620.171467583512	1385.870821152847	71.394296199550	610.908067657109	836.000195843022	39.259594403609	376.185110755745	906.211789636108	34.681562528087	292.316703609549	990.853333970450	95.885703421380	315.994543893408	1118.184609016103	43.050674168063	283.288817405744	1136.106923191823	1104.801720605807	72.795257309587	1378.773034039288	1007.246547346845	52.461523940342	899.781660870510	1131.843153221700	674.315409937175	893.811193652360	869.661367928642	682.351943519332	
72	39.843428571429	863.671912577945	1003.422887896507	411.548736418995	1064.126805023269	1427.333043566680	229.972947748797	1144.850622539226	1367.748354790094	405.983350859408	1037.820183381689	1446.149483830001	564.253754549751	1024.376513845210	1494.564088283358	380.752559877630	1083.531768176395	944.555369080965	550.312452074054	1092.324114766595	963.480237973137	273.696441021658	1148.534696422636	758.470040690025	529.046514872322	1093.718303161586	640.557371455244	600.421104192238	1183.090713738993	596.618629999190	523.928598217790	1209.225871300135	513.317089437313	541.026811658020	1100.504932219556	738.013216209274	300.689524952034	988.629047429760	637.729800599280	236.028995176727	1053.519836361530	548.013444940368	299.625163355253	1040.803104662081	482.602682876957	308.335609746376	1011.138743448509	414.552511909715	301.004710596958	912.960523956658	304.984947813437	253.366536596426	961.635307640587	192.048276816118	325.419589180663	1188.817201445305	427.003450677297	552.084570150790	1127.558923507417	318.189928843629	615.859257694168	1192.942754569434	227.480917641528	567.280221416845	1091.580461714882	46.496580468280	541.799328527650	1257.660279954468	111.370316320164	581.476459498001	1174.561267216704	42.498151353265	616.789425756247	1379.378576886420	67.959346777068	609.636479755785	830.598497445219	39.220993209186	376.190999846728	900.784309770710	34.683767830998	292.328566906556	985.421565338990	95.895563479525	316.029329640873	1112.735072543235	43.041382851703	283.279195974111	1135.603777889047	1102.880798743027	76.262794562416	1377.579343629957	1003.300769944018	55.684213983352	901.595369504781	1129.573699036618	676.606815318385	899.804079460700	867.329075384617	684.665706619555	
73	39.856857142857	865.044012718586	1001.980124318445	413.372551606044	1063.209532289795	1426.331079370467	232.271711318220	1144.291272580341	1367.437272137688	408.388427007715	1036.679792503580	1445.210663165298	566.607885518438	1023.301190324233	1493.549521848489	383.020407269995	1084.997388569487	943.089106088693	552.171845867562	1094.067786975399	963.008144918385	275.689019585628	1150.086481341756	756.170291336438	530.453987176185	1093.118257733232	637.907039804163	599.980516790212	1182.911786838025	594.366758495923	523.914873157771	1207.879543387545	510.612799355253	539.986663008625	1100.269489810987	736.809876741708	302.076401659716	987.148394675373	637.685625353068	237.187524317724	1050.849339543953	547.257795007788	300.779262434595	1037.570837233222	481.861112763346	309.348004778154	1007.472965177064	414.162567590994	301.838429861602	908.630554264016	305.290674947531	253.960516597504	956.783252942355	191.898535231548	325.736406726734	1186.467765383030	423.748481463954	550.717438426195	1123.371046217683	315.456358494575	613.496950325385	1187.705619584659	224.257000691916	564.668789040277	1084.281544621952	44.963993674928	537.774296493651	1250.316538607479	108.285415406885	578.818588621682	1166.379966297026	40.709629154145	613.767582304196	1371.526314237313	64.243309516469	608.492670229666	825.187770121069	39.139559358677	376.200712522955	895.356207276419	34.670062287928	292.350610690212	979.979403946338	95.904236109447	316.086919648488	1107.291081540148	43.016408983997	283.264656001681	1134.668312631880	1100.885314775651	80.039521474499	1375.609884631908	998.443555429303	59.010467749998	903.912433991124	1126.980415673926	679.169874180348	907.079045950705	864.768959163456	687.443418879997	
74	39.870285714286	866.541535268508	1000.533916997243	415.322607044236	1062.271848956081	1425.440914336541	234.828404643913	1143.790625496156	1367.178807113945	411.000384996768	1035.613589901805	1444.193542431754	569.240035972056	1022.231551298797	1492.565175856165	385.591130032923	1086.699108521498	941.707021811155	554.048200762484	1095.851568336921	962.526948112904	277.748810934378	1152.207307747714	754.171793456496	531.638784864414	1093.243638939426	635.574564279343	599.443618636217	1183.381590787210	592.486241020198	523.709504544074	1207.171101289689	508.078603978935	538.773367109471	1100.254243114605	735.590874720069	303.510663215865	986.009420135775	637.563548758800	238.455058812494	1048.637041930885	546.466511830138	302.044463627993	1034.843923839534	480.978553182745	310.490654323659	1004.228401605733	413.650305962741	302.779346444014	904.570174477758	305.602222535042	254.665031164327	952.041585969333	191.668636035041	326.107123457666	1184.553740352616	420.625835325314	549.341887679935	1119.510732979622	313.088276048808	611.479735327983	1182.294201088652	221.159466506918	562.244431278070	1076.169332905882	43.803857043397	534.381738290008	1242.331540339326	105.393902752719	576.431929965892	1157.517290415563	39.281107227741	611.266574168220	1363.056860845992	60.594039395268	607.494985478933	819.763851913188	39.024770835198	376.213938652295	889.931050438413	34.639039190317	292.386987729915	974.537863354768	95.910761050456	316.167392856882	1101.862871825947	42.960894043662	283.243880672126	1133.304244946808	1098.853001161971	84.108371850311	1372.816307478809	992.716262450768	62.417156959645	906.691726370338	1124.125790087101	681.974434378657	915.569114551343	862.083967480366	690.691207409817	
